<svg width="21" height="48" fill="none" xmlns="http://www.w3.org/2000/svg"><path d="M5.356 16.847s1.514-2.382.535-5.692c-.982-3.306-3.27-4.562-3.27-4.562s-1.711 2.84-.754 6.063c.954 3.225 3.49 4.191 3.49 4.191zm4.201 1.693s2.646-.26 4.161-3.149c1.515-2.888.357-6.117.357-6.117s-2.456.609-4.012 3.574c-1.555 2.962-.506 5.691-.506 5.691zm.268 3.818c-1.225 3.186.106 5.727.106 5.727s2.598-.68 3.79-3.783c1.191-3.107-.302-6.123-.302-6.123s-2.37.993-3.594 4.179zm5.98 2.566s-2.284 1.264-3.257 4.573c-.974 3.316.545 5.69.545 5.69s2.531-.974 3.481-4.202c.948-3.228-.769-6.06-.769-6.06zm1.904 17.426s2.196-1.826 2.345-5.25c.147-3.426-2.168-5.533-2.168-5.533s-1.889 2.014-2.041 5.527c-.15 3.511 1.864 5.256 1.864 5.256zM8.73 10.471s2.342-.955 3.029-4.37c.688-3.416-.642-6.012-.642-6.012S8.404 1.291 7.733 4.623c-.67 3.33.997 5.848.997 5.848zM5.355 24.11s.87-2.823-.865-5.629C2.753 15.673.266 15.295.266 15.295s-.95 3.33.741 6.067c1.691 2.74 4.348 2.748 4.348 2.748zm1.94 7.449s.333-2.988-1.867-5.254C3.225 24.037.731 24.346.731 24.346s-.321 3.505 1.824 5.715c2.149 2.207 4.74 1.498 4.74 1.498zm2.955 6.159s-.418-2.971-3.08-4.315c-2.662-1.348-4.962-.131-4.962-.131s.564 3.46 3.157 4.774c2.593 1.308 4.886-.328 4.886-.328zm1.291 2.558c-2.774-.947-4.94.595-4.94.595s.897 3.35 3.6 4.275c2.705.924 4.82-1.035 4.82-1.035s-.705-2.89-3.48-3.835z" fill="#DAD9D9"/><path d="M9.019 12.508l-1.234-.741c-.064.165-6.409 16.625 11.418 35.238l.892-1.275C3.122 28.006 8.769 13.13 9.019 12.508z" fill="#DAD9D9"/></svg>