<svg preserveAspectRatio="xMinYMid" viewBox="0 0 606 407"><path stroke="#E9E9E9" d="M243.5 95v311m126-311v311m126-311v311m-378-310v311"/><g filter="url(#filter0_d)"><path fill="#C4C4C4" d="M26 280h68v26H26z"/></g><g filter="url(#filter1_d)"><path fill="#C4C4C4" d="M520 16h66v22h-66z"/></g><path fill="#A0ADB5" stroke="#A0ADB5" d="M1.138 361.188h8.777v3.558H1.138z"/><path stroke="#A0ADB5" d="M5.248 351.457v28.133"/><path fill="#A0ADB5" stroke="#A0ADB5" d="M29.135 361.188h8.777v12.082h-8.777z"/><path stroke="#A0ADB5" d="M33.245 351.457V383"/><path fill="#A0ADB5" stroke="#A0ADB5" d="M57.133 338.901h8.777v20.486h-8.777z"/><path stroke="#A0ADB5" d="M61.243 322.473v40.067"/><path fill="#A0ADB5" stroke="#A0ADB5" d="M71.131 358.813h8.777v10.134h-8.777z"/><path stroke="#A0ADB5" d="M75.242 343.785v28.132"/><path fill="#A0ADB5" stroke="#A0ADB5" d="M141.125 318.563h8.777v6.968h-8.777z"/><path stroke="#A0ADB5" d="M145.236 315.653v26.427"/><path fill="#A0ADB5" stroke="#A0ADB5" d="M169.123 321.12h8.777v4.41h-8.777z"/><path stroke="#A0ADB5" d="M173.233 315.652v14.493"/><path fill="#A0ADB5" fill-opacity=".2" stroke="#A0ADB5" d="M15.136 362.892h8.777v1.853h-8.777z"/><path stroke="#A0ADB5" d="M19.247 344.638v21.312"/><path fill="#FB7101" stroke="#FB7101" d="M15.136 362.892h8.777v1.853h-8.777z"/><path stroke="#FB7101" d="M19.247 344.638v21.312"/><path fill="#FB7101" stroke="#FB7101" d="M43.203 338.84h8.638v34.491h-8.638z"/><path stroke="#FB7101" d="M47.245 335.26v43.478"/><path fill="#FB7101" stroke="#FB7101" d="M85.13 356.925h8.777v12.082H85.13z"/><path stroke="#FB7101" d="M89.241 335.26v40.068"/><path fill="#FB7101" stroke="#FB7101" d="M99.129 332.203h8.777v24.017h-8.777z"/><path stroke="#FB7101" d="M103.24 327.588v32.395"/><path fill="#FB7101" stroke="#FB7101" d="M113.128 319.415h8.777v13.787h-8.777z"/><path stroke="#FB7101" d="M117.239 306.275v29.838"/><path fill="#FB7101" stroke="#FB7101" d="M127.126 318.562h8.777v4.41h-8.777z"/><path stroke="#FB7101" d="M131.237 312.242v20.46"/><path fill="#FB7101" stroke="#FB7101" d="M155.124 320.267h8.777v7.82h-8.777z"/><path stroke="#FB7101" d="M159.235 314.8v16.198"/><path fill="#FB7101" stroke="#FB7101" d="M183.121 312.595h8.777v12.935h-8.777z"/><path stroke="#FB7101" d="M187.232 302.013v25.575"/><path fill="#A0ADB5" stroke="#A0ADB5" d="M393.103 157.44h8.777v30.837h-8.777z"/><path stroke="#A0ADB5" d="M397.214 130.66v61.38"/><path fill="#A0ADB5" stroke="#A0ADB5" d="M421.1 167.67h8.777v5.263H421.1z"/><path stroke="#A0ADB5" d="M425.21 142.595v33.247"/><path fill="#FB7101" stroke="#FB7101" d="M449.098 141.242h8.777v15.492h-8.777z"/><path stroke="#FB7101" d="M453.209 136.628v35.804"/><path fill="#FB7101" stroke="#FB7101" d="M463.097 96.06h8.777v45.33h-8.777z"/><path stroke="#FB7101" d="M467.208 91.445v52.003"/><path fill="#FB7101" stroke="#FB7101" d="M533.091 90.093h8.777v8.672h-8.777z"/><path stroke="#FB7101" d="M537.202 66.722v37.51"/><path fill="#A0ADB5" stroke="#A0ADB5" d="M561.087 54.288h8.777V73.19h-8.777z"/><path stroke="#A0ADB5" d="M565.198 49.672v45.183"/><path fill="#FB7101" stroke="#FB7101" d="M407.102 165.965h8.777v22.313h-8.777z"/><path stroke="#FB7101" d="M411.213 153.677v43.478"/><path fill="#A0ADB5" stroke="#A0ADB5" d="M435.099 154.03h8.777v3.558h-8.777z"/><path stroke="#A0ADB5" d="M439.21 150.267v25.575"/><path fill="#A0ADB5" stroke="#A0ADB5" d="M477.095 96.06h8.777v5.263h-8.777z"/><path stroke="#A0ADB5" d="M481.206 42v71.61"/><path fill="#FB7101" stroke="#FB7101" d="M491.094 90.093h8.777v12.082h-8.777z"/><path stroke="#FB7101" d="M495.205 59.05v51.15"/><path fill="#A0ADB5" stroke="#A0ADB5" d="M505.093 87.535h8.777v18.05h-8.777z"/><path stroke="#A0ADB5" d="M509.204 83.772v41.773"/><path fill="#FB7101" stroke="#FB7101" d="M519.092 97.765h8.777v7.82h-8.777z"/><path stroke="#FB7101" d="M523.203 76.1v49.445"/><path fill="#FB7101" stroke="#FB7101" d="M547.089 52.583h8.777v40.215h-8.777z"/><path stroke="#FB7101" d="M551.2 47.115v57.117"/><path fill="#A0ADB5" stroke="#A0ADB5" d="M575.087 76.452h8.777v35.1h-8.777z"/><path stroke="#A0ADB5" d="M579.198 66.722v47.74"/><path fill="#FB7101" stroke="#FB7101" d="M589.085 107.995h8.777v5.263h-8.777z"/><path stroke="#FB7101" d="M593.196 84.625v49.445"/><path fill="#FB7101" stroke="#FB7101" d="M197.12 288.725h8.777v24.017h-8.777z"/><path stroke="#FB7101" d="M201.231 281.552v30.69"/><path fill="#FB7101" stroke="#FB7101" d="M225.118 261.445h8.777v3.558h-8.777z"/><path stroke="#FB7101" d="M229.229 259.388v8.525"/><path fill="#A0ADB5" stroke="#A0ADB5" d="M253.115 240.985h8.777v19.755h-8.777z"/><path stroke="#A0ADB5" d="M257.226 236.37v28.133"/><path fill="#FB7101" stroke="#FB7101" d="M267.114 237.575h8.777v22.313h-8.777z"/><path stroke="#FB7101" d="M271.225 227.845v34.952"/><path fill="#FB7101" stroke="#FB7101" d="M337.108 252.068h8.777v36.805h-8.777z"/><path stroke="#FB7101" d="M341.219 240.633v54.56"/><path fill="#FB7101" stroke="#FB7101" d="M365.105 156.587h8.777v26.575h-8.777z"/><path stroke="#FB7101" d="M369.216 141.742v45.183"/><path fill="#FB7101" stroke="#FB7101" d="M211.119 266.56h8.777v22.313h-8.777z"/><path stroke="#FB7101" d="M215.229 252.568v39.215"/><path fill="#FB7101" stroke="#FB7101" d="M239.116 240.985h8.777v19.755h-8.777z"/><path stroke="#FB7101" d="M243.227 230.402v34.1"/><path fill="#A0ADB5" stroke="#A0ADB5" d="M281.113 237.575h8.777v16.345h-8.777z"/><path stroke="#A0ADB5" d="M285.223 230.402v25.575"/><path fill="#A0ADB5" stroke="#A0ADB5" d="M295.111 253.772h8.777v26.575h-8.777z"/><path stroke="#A0ADB5" d="M299.222 243.19v40.92"/><path fill="#A0ADB5" stroke="#A0ADB5" d="M309.11 279.348h8.777v12.935h-8.777z"/><path stroke="#A0ADB5" d="M313.221 275.585v24.722"/><path fill="#FB7101" stroke="#FB7101" d="M323.109 287.872h8.777v4.41h-8.777z"/><path stroke="#FB7101" d="M327.22 257.682v40.068"/><path fill="#FB7101" stroke="#FB7101" d="M351.107 188.13h8.777v64.085h-8.777z"/><path stroke="#FB7101" d="M355.218 186.073v65.642"/><path fill="#A0ADB5" stroke="#A0ADB5" d="M379.104 154.883h8.777v2.705h-8.777z"/><path stroke="#A0ADB5" d="M383.215 146.858v37.51"/><rect x="17" y="271" width="88" height="37" rx="3" fill="#F5F9FA"/><path d="M59.5 312.5L55 308h9l-4.5 4.5z" fill="#F5F9FA"/><rect x="509" y="1" width="88" height="37" rx="3" fill="#F5F9FA"/><path d="M551.5 42.5L547 38h9l-4.5 4.5z" fill="#F5F9FA"/><path d="M523.984 23.352v-2.88h-2.896v-2.208h2.896v-2.88h2.272v2.88h2.896v2.208h-2.896v2.88h-2.272zM531.018 25v-1.952l3.728-3.056c.736-.608 1.243-1.093 1.52-1.456.278-.373.416-.784.416-1.232 0-.459-.138-.816-.416-1.072-.277-.256-.64-.384-1.088-.384a1.96 1.96 0 00-1.136.352c-.33.224-.714.608-1.152 1.152l-1.728-1.392c.587-.8 1.19-1.387 1.808-1.76.63-.373 1.419-.56 2.368-.56 1.163 0 2.096.32 2.8.96.704.63 1.056 1.472 1.056 2.528 0 .608-.117 1.157-.352 1.648-.234.48-.538.907-.912 1.28-.373.363-.933.832-1.68 1.408l-1.824 1.408h4.88V25h-8.288zm18.609-1.456c-.928 1.099-2.128 1.648-3.6 1.648s-2.667-.55-3.584-1.648c-.917-1.099-1.376-2.48-1.376-4.144 0-1.653.464-3.03 1.392-4.128.928-1.11 2.128-1.664 3.6-1.664 1.461 0 2.651.55 3.568 1.648.928 1.099 1.392 2.48 1.392 4.144 0 1.653-.464 3.035-1.392 4.144zm-5.36-1.584c.459.672 1.056 1.008 1.792 1.008s1.323-.33 1.76-.992c.448-.672.672-1.53.672-2.576 0-1.024-.229-1.872-.688-2.544-.459-.683-1.051-1.024-1.776-1.024-.725 0-1.312.336-1.76 1.008-.448.661-.672 1.515-.672 2.56 0 1.035.224 1.888.672 2.56zm17.048 1.584c-.928 1.099-2.128 1.648-3.6 1.648s-2.667-.55-3.584-1.648c-.918-1.099-1.376-2.48-1.376-4.144 0-1.653.464-3.03 1.392-4.128.928-1.11 2.128-1.664 3.6-1.664 1.461 0 2.65.55 3.568 1.648.928 1.099 1.392 2.48 1.392 4.144 0 1.653-.464 3.035-1.392 4.144zm-5.36-1.584c.458.672 1.056 1.008 1.792 1.008s1.322-.33 1.76-.992c.448-.672.672-1.53.672-2.576 0-1.024-.23-1.872-.688-2.544-.459-.683-1.051-1.024-1.776-1.024-.726 0-1.312.336-1.76 1.008-.448.661-.672 1.515-.672 2.56 0 1.035.224 1.888.672 2.56zm17.047 1.584c-.928 1.099-2.128 1.648-3.6 1.648s-2.667-.55-3.584-1.648c-.917-1.099-1.376-2.48-1.376-4.144 0-1.653.464-3.03 1.392-4.128.928-1.11 2.128-1.664 3.6-1.664 1.461 0 2.651.55 3.568 1.648.928 1.099 1.392 2.48 1.392 4.144 0 1.653-.464 3.035-1.392 4.144zm-5.36-1.584c.459.672 1.056 1.008 1.792 1.008s1.323-.33 1.76-.992c.448-.672.672-1.53.672-2.576 0-1.024-.229-1.872-.688-2.544-.459-.683-1.051-1.024-1.776-1.024-.725 0-1.312.336-1.76 1.008-.448.661-.672 1.515-.672 2.56 0 1.035.224 1.888.672 2.56zm12.104 4.608v-1.616c-1.419-.181-2.678-.688-3.776-1.52l1.248-1.824c.917.693 1.786 1.125 2.608 1.296V20.36c-1.195-.32-2.07-.736-2.624-1.248-.544-.523-.816-1.248-.816-2.176 0-.875.304-1.59.912-2.144.608-.555 1.424-.885 2.448-.992v-.928h1.664v.96a6.688 6.688 0 012.976 1.184l-1.072 1.872c-.683-.459-1.344-.773-1.984-.944v2.416c1.226.33 2.112.768 2.656 1.312.544.533.816 1.253.816 2.16 0 .875-.31 1.59-.928 2.144-.608.555-1.43.89-2.464 1.008v1.584h-1.664zm.08-8.608V15.8c-.736.096-1.104.437-1.104 1.024 0 .256.074.475.224.656.16.17.453.33.88.48zm1.504 5.024c.757-.117 1.136-.47 1.136-1.056 0-.277-.086-.501-.256-.672-.16-.181-.454-.352-.88-.512v2.24z" fill="#FB7101"/><path d="M40.344 296l5.008-9.072h-5.264V284.8h8.064v1.856L43.128 296h-2.784zm13.036.192c-1.621 0-3.019-.56-4.192-1.68l1.488-1.776c.896.811 1.787 1.216 2.672 1.216.587 0 1.045-.139 1.376-.416.33-.277.496-.667.496-1.168 0-.469-.181-.837-.544-1.104-.363-.277-.843-.416-1.44-.416s-1.221.139-1.872.416l-1.424-.944.32-5.52h6.88v2.16h-4.768l-.128 1.936a6.068 6.068 0 011.472-.192c1.163 0 2.107.299 2.832.896.725.597 1.088 1.504 1.088 2.72 0 1.184-.39 2.128-1.168 2.832-.768.693-1.797 1.04-3.088 1.04zm14.622-1.648c-.928 1.099-2.128 1.648-3.6 1.648s-2.666-.549-3.584-1.648c-.917-1.099-1.376-2.48-1.376-4.144 0-1.653.464-3.029 1.392-4.128.928-1.109 2.128-1.664 3.6-1.664 1.462 0 2.65.549 3.568 1.648.928 1.099 1.392 2.48 1.392 4.144 0 1.653-.464 3.035-1.392 4.144zm-5.36-1.584c.459.672 1.056 1.008 1.792 1.008s1.323-.331 1.76-.992c.448-.672.672-1.531.672-2.576 0-1.024-.23-1.872-.688-2.544-.459-.683-1.05-1.024-1.776-1.024-.725 0-1.312.336-1.76 1.008-.448.661-.672 1.515-.672 2.56 0 1.035.224 1.888.672 2.56zm12.104 4.608v-1.616c-1.419-.181-2.678-.688-3.776-1.52l1.248-1.824c.917.693 1.786 1.125 2.608 1.296v-2.544c-1.195-.32-2.07-.736-2.624-1.248-.544-.523-.816-1.248-.816-2.176 0-.875.304-1.589.912-2.144.608-.555 1.424-.885 2.448-.992v-.928h1.664v.96a6.681 6.681 0 012.976 1.184l-1.072 1.872c-.683-.459-1.344-.773-1.984-.944v2.416c1.226.331 2.112.768 2.656 1.312.544.533.816 1.253.816 2.16 0 .875-.31 1.589-.928 2.144-.608.555-1.43.891-2.464 1.008v1.584h-1.664zm.08-8.608v-2.16c-.736.096-1.104.437-1.104 1.024 0 .256.074.475.224.656.16.171.453.331.88.48zm1.504 5.024c.757-.117 1.136-.469 1.136-1.056 0-.277-.086-.501-.256-.672-.16-.181-.454-.352-.88-.512v2.24z" fill="#A0ADB5"/><defs><filter id="filter0_d" x="6" y="264" width="108" height="66" filterUnits="userSpaceOnUse" color-interpolation-filters="sRGB"><feFlood flood-opacity="0" result="BackgroundImageFix"/><feColorMatrix in="SourceAlpha" values="0 0 0 0 0 0 0 0 0 0 0 0 0 0 0 0 0 0 127 0"/><feOffset dy="4"/><feGaussianBlur stdDeviation="10"/><feColorMatrix values="0 0 0 0 0 0 0 0 0 0 0 0 0 0 0 0 0 0 0.15 0"/><feBlend in2="BackgroundImageFix" result="effect1_dropShadow"/><feBlend in="SourceGraphic" in2="effect1_dropShadow" result="shape"/></filter><filter id="filter1_d" x="500" y="0" width="106" height="62" filterUnits="userSpaceOnUse" color-interpolation-filters="sRGB"><feFlood flood-opacity="0" result="BackgroundImageFix"/><feColorMatrix in="SourceAlpha" values="0 0 0 0 0 0 0 0 0 0 0 0 0 0 0 0 0 0 127 0"/><feOffset dy="4"/><feGaussianBlur stdDeviation="10"/><feColorMatrix values="0 0 0 0 0.00416667 0 0 0 0 0.00416667 0 0 0 0 0.00416667 0 0 0 0.2 0"/><feBlend in2="BackgroundImageFix" result="effect1_dropShadow"/><feBlend in="SourceGraphic" in2="effect1_dropShadow" result="shape"/></filter></defs></svg>